<svg width="1551" height="805" xmlns="http://www.w3.org/2000/svg"><g><path d="M-112,-69L-95,959L-102,82Z" fill="#defeec" stroke="#defeec"/><path d="M-112,-69L-102,82L52,-70Z" fill="#fefffb" stroke="#fefffb"/><path d="M-112,-69L52,-70L1059,-113Z" fill="#e9f6e5" stroke="#e9f6e5"/><path d="M52,-70L-102,82L114,94Z" fill="#fafdf7" stroke="#fafdf7"/><path d="M52,-70L114,94L183,-22Z" fill="#f4fbf1" stroke="#f4fbf1"/><path d="M52,-70L183,-22L390,-55Z" fill="#eff9ec" stroke="#eff9ec"/><path d="M52,-70L390,-55L438,-59Z" fill="#ebf7e8" stroke="#ebf7e8"/><path d="M52,-70L438,-59L1059,-113Z" fill="#daf1dd" stroke="#daf1dd"/><path d="M183,-22L114,94L246,60Z" fill="#f1faee" stroke="#f1faee"/><path d="M183,-22L246,60L306,60Z" fill="#edf8ea" stroke="#edf8ea"/><path d="M183,-22L306,60L390,-55Z" fill="#ebf7e8" stroke="#ebf7e8"/><path d="M390,-55L306,60L472,33Z" fill="#e6f5e2" stroke="#e6f5e2"/><path d="M390,-55L472,33L438,-59Z" fill="#e2f4e0" stroke="#e2f4e0"/><path d="M438,-59L472,33L680,-37Z" fill="#d9f0dc" stroke="#d9f0dc"/><path d="M438,-59L680,-37L1059,-113Z" fill="#c3e8e0" stroke="#c3e8e0"/><path d="M680,-37L472,33L665,99Z" fill="#d1eddb" stroke="#d1eddb"/><path d="M680,-37L665,99L811,35Z" fill="#c4e8e0" stroke="#c4e8e0"/><path d="M680,-37L811,35L807,-46Z" fill="#bee6e1" stroke="#bee6e1"/><path d="M680,-37L807,-46L1059,-113Z" fill="#b5e1e5" stroke="#b5e1e5"/><path d="M807,-46L811,35L935,-54Z" fill="#b4e1e5" stroke="#b4e1e5"/><path d="M807,-46L935,-54L1059,-113Z" fill="#abdce8" stroke="#abdce8"/><path d="M935,-54L811,35L892,72Z" fill="#b1dfe6" stroke="#b1dfe6"/><path d="M935,-54L892,72L1077,63Z" fill="#a7d9e9" stroke="#a7d9e9"/><path d="M935,-54L1077,63L1059,-113Z" fill="#a2d4e6" stroke="#a2d4e6"/><path d="M1059,-113L1077,63L1143,29Z" fill="#9ccde3" stroke="#9ccde3"/><path d="M1059,-113L1143,29L1224,-73Z" fill="#97c8e0" stroke="#97c8e0"/><path d="M1059,-113L1224,-73L1279,-101Z" fill="#93c3dd" stroke="#93c3dd"/><path d="M1059,-113L1279,-101L1610,-113Z" fill="#87b1d2" stroke="#87b1d2"/><path d="M1059,-113L1610,-113L1755,-119Z" fill="#809cc5" stroke="#809cc5"/><path d="M1224,-73L1143,29L1322,48Z" fill="#8fbdd9" stroke="#8fbdd9"/><path d="M1224,-73L1322,48L1279,-101Z" fill="#8bb7d6" stroke="#8bb7d6"/><path d="M1279,-101L1322,48L1464,16Z" fill="#84accf" stroke="#84accf"/><path d="M1279,-101L1464,16L1496,-50Z" fill="#80a4ca" stroke="#80a4ca"/><path d="M1279,-101L1496,-50L1610,-113Z" fill="#809ec6" stroke="#809ec6"/><path d="M1496,-50L1464,16L1658,107Z" fill="#8093c0" stroke="#8093c0"/><path d="M1496,-50L1658,107L1610,-113Z" fill="#808dbc" stroke="#808dbc"/><path d="M1610,-113L1658,107L1755,-119Z" fill="#8081b5" stroke="#8081b5"/><path d="M1755,-119L1658,107L1804,30Z" fill="#8080af" stroke="#8080af"/><path d="M-102,82L-95,959L-53,669Z" fill="#a0dbf2" stroke="#a0dbf2"/><path d="M-102,82L-53,669L-45,451Z" fill="#caf9f1" stroke="#caf9f1"/><path d="M-102,82L-45,451L-45,366Z" fill="#e4ffe8" stroke="#e4ffe8"/><path d="M-102,82L-45,366L-38,263Z" fill="#f1ffee" stroke="#f1ffee"/><path d="M-102,82L-38,263L49,186Z" fill="#f9fef2" stroke="#f9fef2"/><path d="M-102,82L49,186L114,94Z" fill="#f9fdf5" stroke="#f9fdf5"/><path d="M114,94L49,186L164,184Z" fill="#f2fbec" stroke="#f2fbec"/><path d="M114,94L164,184L246,60Z" fill="#f0faed" stroke="#f0faed"/><path d="M246,60L164,184L306,60Z" fill="#edf8eb" stroke="#edf8eb"/><path d="M306,60L164,184L394,176Z" fill="#e8f7e4" stroke="#e8f7e4"/><path d="M306,60L394,176L472,33Z" fill="#e5f5e2" stroke="#e5f5e2"/><path d="M472,33L394,176L587,181Z" fill="#dbf2db" stroke="#dbf2db"/><path d="M472,33L587,181L665,99Z" fill="#d4efda" stroke="#d4efda"/><path d="M665,99L587,181L756,262Z" fill="#c5ead6" stroke="#c5ead6"/><path d="M665,99L756,262L811,35Z" fill="#bfe7de" stroke="#bfe7de"/><path d="M811,35L756,262L918,189Z" fill="#b4e2de" stroke="#b4e2de"/><path d="M811,35L918,189L892,72Z" fill="#b2dfe6" stroke="#b2dfe6"/><path d="M892,72L918,189L1023,172Z" fill="#a7dbe4" stroke="#a7dbe4"/><path d="M892,72L1023,172L1077,63Z" fill="#a4d6e8" stroke="#a4d6e8"/><path d="M1077,63L1023,172L1141,156Z" fill="#9bcee0" stroke="#9bcee0"/><path d="M1077,63L1141,156L1143,29Z" fill="#99cae1" stroke="#99cae1"/><path d="M1143,29L1141,156L1294,170Z" fill="#92c2da" stroke="#92c2da"/><path d="M1143,29L1294,170L1322,48Z" fill="#8dbad7" stroke="#8dbad7"/><path d="M1322,48L1294,170L1484,222Z" fill="#80aac9" stroke="#80aac9"/><path d="M1322,48L1484,222L1464,16Z" fill="#80a3c9" stroke="#80a3c9"/><path d="M1464,16L1484,222L1658,107Z" fill="#7f94bf" stroke="#7f94bf"/><path d="M1658,107L1484,222L1664,246Z" fill="#7a8bb2" stroke="#7a8bb2"/><path d="M1658,107L1664,246L1797,178Z" fill="#7b80aa" stroke="#7b80aa"/><path d="M1658,107L1797,178L1804,30Z" fill="#7f80ae" stroke="#7f80ae"/><path d="M1804,30L1797,178L1803,524Z" fill="#71809c" stroke="#71809c"/><path d="M-38,263L-45,366L108,354Z" fill="#d8fce6" stroke="#d8fce6"/><path d="M-38,263L108,354L49,186Z" fill="#e5fde5" stroke="#e5fde5"/><path d="M49,186L108,354L158,323Z" fill="#ddfbe0" stroke="#ddfbe0"/><path d="M49,186L158,323L164,184Z" fill="#e7fbe4" stroke="#e7fbe4"/><path d="M164,184L158,323L374,347Z" fill="#d6f8d9" stroke="#d6f8d9"/><path d="M164,184L374,347L394,176Z" fill="#dcf7da" stroke="#dcf7da"/><path d="M394,176L374,347L497,258Z" fill="#d0f4d1" stroke="#d0f4d1"/><path d="M394,176L497,258L587,181Z" fill="#d5f1d3" stroke="#d5f1d3"/><path d="M497,258L374,347L538,302Z" fill="#c3f2cb" stroke="#c3f2cb"/><path d="M497,258L538,302L587,181Z" fill="#c8f0cd" stroke="#c8f0cd"/><path d="M587,181L538,302L654,356Z" fill="#bbeec9" stroke="#bbeec9"/><path d="M587,181L654,356L756,262Z" fill="#b6ebce" stroke="#b6ebce"/><path d="M756,262L654,356L807,364Z" fill="#9fe6cf" stroke="#9fe6cf"/><path d="M756,262L807,364L918,189Z" fill="#a2e2d3" stroke="#a2e2d3"/><path d="M918,189L807,364L943,348Z" fill="#95ded3" stroke="#95ded3"/><path d="M918,189L943,348L1023,172Z" fill="#9adadb" stroke="#9adadb"/><path d="M1023,172L943,348L1027,389Z" fill="#88d6d4" stroke="#88d6d4"/><path d="M1023,172L1027,389L1141,156Z" fill="#90d0d7" stroke="#90d0d7"/><path d="M1141,156L1027,389L1222,377Z" fill="#7bc9ce" stroke="#7bc9ce"/><path d="M1141,156L1222,377L1294,170Z" fill="#83becd" stroke="#83becd"/><path d="M1294,170L1222,377L1379,299Z" fill="#72b4c2" stroke="#72b4c2"/><path d="M1294,170L1379,299L1484,222Z" fill="#75a8c0" stroke="#75a8c0"/><path d="M1484,222L1379,299L1427,363Z" fill="#66a2b6" stroke="#66a2b6"/><path d="M1484,222L1427,363L1570,323Z" fill="#6499b0" stroke="#6499b0"/><path d="M1484,222L1570,323L1664,246Z" fill="#6c8fad" stroke="#6c8fad"/><path d="M1664,246L1570,323L1762,350Z" fill="#6382a2" stroke="#6382a2"/><path d="M1664,246L1762,350L1797,178Z" fill="#6e80a0" stroke="#6e80a0"/><path d="M1797,178L1762,350L1803,524Z" fill="#577d9c" stroke="#577d9c"/><path d="M-45,366L-45,451L74,439Z" fill="#c1f5ef" stroke="#c1f5ef"/><path d="M-45,366L74,439L108,354Z" fill="#c7f8e9" stroke="#c7f8e9"/><path d="M108,354L74,439L237,484Z" fill="#b7f1e8" stroke="#b7f1e8"/><path d="M108,354L237,484L158,323Z" fill="#bff5e3" stroke="#bff5e3"/><path d="M158,323L237,484L312,467Z" fill="#b2efe2" stroke="#b2efe2"/><path d="M158,323L312,467L374,347Z" fill="#bbf3dc" stroke="#bbf3dc"/><path d="M374,347L312,467L539,469Z" fill="#a7ebd9" stroke="#a7ebd9"/><path d="M374,347L539,469L538,302Z" fill="#afeed1" stroke="#afeed1"/><path d="M538,302L539,469L654,356Z" fill="#a5eacd" stroke="#a5eacd"/><path d="M654,356L539,469L619,510Z" fill="#90e1d5" stroke="#90e1d5"/><path d="M654,356L619,510L807,364Z" fill="#8fe2d5" stroke="#8fe2d5"/><path d="M807,364L619,510L819,531Z" fill="#79d7dc" stroke="#79d7dc"/><path d="M807,364L819,531L891,449Z" fill="#74d5de" stroke="#74d5de"/><path d="M807,364L891,449L943,348Z" fill="#7fdada" stroke="#7fdada"/><path d="M943,348L891,449L1027,389Z" fill="#75d5de" stroke="#75d5de"/><path d="M1027,389L891,449L1073,449Z" fill="#67cce0" stroke="#67cce0"/><path d="M1027,389L1073,449L1222,377Z" fill="#64c5d7" stroke="#64c5d7"/><path d="M1222,377L1073,449L1199,504Z" fill="#54bad8" stroke="#54bad8"/><path d="M1222,377L1199,504L1301,528Z" fill="#46abd4" stroke="#46abd4"/><path d="M1222,377L1301,528L1427,363Z" fill="#4ca8ca" stroke="#4ca8ca"/><path d="M1222,377L1427,363L1379,299Z" fill="#5eabc0" stroke="#5eabc0"/><path d="M1427,363L1301,528L1486,457Z" fill="#3d98c4" stroke="#3d98c4"/><path d="M1427,363L1486,457L1570,323Z" fill="#4f95b7" stroke="#4f95b7"/><path d="M1570,323L1486,457L1560,514Z" fill="#4289b8" stroke="#4289b8"/><path d="M1570,323L1560,514L1762,350Z" fill="#4c82ad" stroke="#4c82ad"/><path d="M1762,350L1560,514L1803,524Z" fill="#3a71ad" stroke="#3a71ad"/><path d="M-45,451L-53,669L51,677Z" fill="#97d3eb" stroke="#97d3eb"/><path d="M-45,451L51,677L74,439Z" fill="#a5e4f2" stroke="#a5e4f2"/><path d="M74,439L51,677L206,595Z" fill="#96d7e8" stroke="#96d7e8"/><path d="M74,439L206,595L237,484Z" fill="#a0e4ec" stroke="#a0e4ec"/><path d="M237,484L206,595L312,467Z" fill="#99e0e7" stroke="#99e0e7"/><path d="M312,467L206,595L304,669Z" fill="#8bd2de" stroke="#8bd2de"/><path d="M312,467L304,669L531,592Z" fill="#86d0d8" stroke="#86d0d8"/><path d="M312,467L531,592L539,469Z" fill="#8cdcdd" stroke="#8cdcdd"/><path d="M539,469L531,592L619,510Z" fill="#80d5d7" stroke="#80d5d7"/><path d="M619,510L531,592L633,602Z" fill="#74cad1" stroke="#74cad1"/><path d="M619,510L633,602L819,531Z" fill="#6dcad7" stroke="#6dcad7"/><path d="M819,531L633,602L820,577Z" fill="#60c2d7" stroke="#60c2d7"/><path d="M819,531L820,577L891,449Z" fill="#61c9e1" stroke="#61c9e1"/><path d="M891,449L820,577L1011,626Z" fill="#53bddf" stroke="#53bddf"/><path d="M891,449L1011,626L1073,449Z" fill="#53c1e6" stroke="#53c1e6"/><path d="M1073,449L1011,626L1199,504Z" fill="#45b2de" stroke="#45b2de"/><path d="M1199,504L1011,626L1144,683Z" fill="#339ed3" stroke="#339ed3"/><path d="M1199,504L1144,683L1324,631Z" fill="#2a91cb" stroke="#2a91cb"/><path d="M1199,504L1324,631L1301,528Z" fill="#3096ce" stroke="#3096ce"/><path d="M1301,528L1324,631L1486,457Z" fill="#2a8dc8" stroke="#2a8dc8"/><path d="M1486,457L1324,631L1517,635Z" fill="#207bbd" stroke="#207bbd"/><path d="M1486,457L1517,635L1560,514Z" fill="#2879bc" stroke="#2879bc"/><path d="M1560,514L1517,635L1583,589Z" fill="#1f6bb4" stroke="#1f6bb4"/><path d="M1560,514L1583,589L1803,524Z" fill="#2767b0" stroke="#2767b0"/><path d="M1803,524L1583,589L1734,634Z" fill="#1e59a6" stroke="#1e59a6"/><path d="M1803,524L1734,634L1769,719Z" fill="#184d9b" stroke="#184d9b"/><path d="M1803,524L1769,719L1744,939Z" fill="#102e87" stroke="#102e87"/><path d="M-53,669L-95,959L-46,750Z" fill="#8a99c9" stroke="#8a99c9"/><path d="M-53,669L-46,750L51,677Z" fill="#8fb5d8" stroke="#8fb5d8"/><path d="M51,677L-46,750L97,726Z" fill="#8aaed2" stroke="#8aaed2"/><path d="M51,677L97,726L206,595Z" fill="#89bcd7" stroke="#89bcd7"/><path d="M206,595L97,726L209,801Z" fill="#83aecd" stroke="#83aecd"/><path d="M206,595L209,801L304,669Z" fill="#81b2cc" stroke="#81b2cc"/><path d="M304,669L209,801L394,756Z" fill="#79a1be" stroke="#79a1be"/><path d="M304,669L394,756L531,592Z" fill="#78b3c6" stroke="#78b3c6"/><path d="M531,592L394,756L454,803Z" fill="#70a4bb" stroke="#70a4bb"/><path d="M531,592L454,803L580,816Z" fill="#699bb5" stroke="#699bb5"/><path d="M531,592L580,816L633,602Z" fill="#68aebf" stroke="#68aebf"/><path d="M633,602L580,816L751,766Z" fill="#5b99b7" stroke="#5b99b7"/><path d="M633,602L751,766L820,577Z" fill="#58aeca" stroke="#58aeca"/><path d="M820,577L751,766L960,659Z" fill="#4aa2ca" stroke="#4aa2ca"/><path d="M820,577L960,659L1011,626Z" fill="#44abd6" stroke="#44abd6"/><path d="M960,659L751,766L859,814Z" fill="#4289bb" stroke="#4289bb"/><path d="M960,659L859,814L963,862Z" fill="#387ab8" stroke="#387ab8"/><path d="M960,659L963,862L1101,802Z" fill="#3075b8" stroke="#3075b8"/><path d="M960,659L1101,802L1011,626Z" fill="#348bc6" stroke="#348bc6"/><path d="M1011,626L1101,802L1144,683Z" fill="#2e83c1" stroke="#2e83c1"/><path d="M1144,683L1101,802L1167,762Z" fill="#2670b6" stroke="#2670b6"/><path d="M1144,683L1167,762L1324,631Z" fill="#2478bc" stroke="#2478bc"/><path d="M1324,631L1167,762L1308,812Z" fill="#1b63af" stroke="#1b63af"/><path d="M1324,631L1308,812L1474,799Z" fill="#1152a4" stroke="#1152a4"/><path d="M1324,631L1474,799L1517,635Z" fill="#135baa" stroke="#135baa"/><path d="M1517,635L1474,799L1607,811Z" fill="#0e3c96" stroke="#0e3c96"/><path d="M1517,635L1607,811L1583,589Z" fill="#144ca1" stroke="#144ca1"/><path d="M1583,589L1607,811L1734,634Z" fill="#14439b" stroke="#14439b"/><path d="M1734,634L1607,811L1769,719Z" fill="#10308d" stroke="#10308d"/><path d="M-46,750L-95,959L23,938Z" fill="#827fb6" stroke="#827fb6"/><path d="M-46,750L23,938L97,726Z" fill="#8493c1" stroke="#8493c1"/><path d="M97,726L23,938L172,894Z" fill="#7b83b4" stroke="#7b83b4"/><path d="M97,726L172,894L209,801Z" fill="#7c90ba" stroke="#7c90ba"/><path d="M209,801L172,894L346,877Z" fill="#737eac" stroke="#737eac"/><path d="M209,801L346,877L394,756Z" fill="#738bb0" stroke="#738bb0"/><path d="M394,756L346,877L454,803Z" fill="#6e89ab" stroke="#6e89ab"/><path d="M454,803L346,877L455,866Z" fill="#697da3" stroke="#697da3"/><path d="M454,803L455,866L580,816Z" fill="#6480a4" stroke="#6480a4"/><path d="M580,816L455,866L583,927Z" fill="#5d729a" stroke="#5d729a"/><path d="M580,816L583,927L715,913Z" fill="#526d97" stroke="#526d97"/><path d="M580,816L715,913L751,766Z" fill="#5078a4" stroke="#5078a4"/><path d="M751,766L715,913L859,814Z" fill="#4574a8" stroke="#4574a8"/><path d="M859,814L715,913L963,862Z" fill="#3b65a4" stroke="#3b65a4"/><path d="M1101,802L963,862L1080,956Z" fill="#2452a3" stroke="#2452a3"/><path d="M1101,802L1080,956L1154,953Z" fill="#1c4b9a" stroke="#1c4b9a"/><path d="M1101,802L1154,953L1167,762Z" fill="#1f54a4" stroke="#1f54a4"/><path d="M1167,762L1154,953L1308,812Z" fill="#184a9f" stroke="#184a9f"/><path d="M1308,812L1154,953L1328,948Z" fill="#0e398e" stroke="#0e398e"/><path d="M1308,812L1328,948L1419,912Z" fill="#072d8a" stroke="#072d8a"/><path d="M1308,812L1419,912L1474,799Z" fill="#07318f" stroke="#07318f"/><path d="M1474,799L1419,912L1557,954Z" fill="#031b7f" stroke="#031b7f"/><path d="M1474,799L1557,954L1607,811Z" fill="#061981" stroke="#061981"/><path d="M1607,811L1557,954L1744,939Z" fill="#020770" stroke="#020770"/><path d="M1607,811L1744,939L1769,719Z" fill="#081079" stroke="#081079"/><path d="M-95,959L1080,956L583,927Z" fill="#5a718c" stroke="#5a718c"/><path d="M-95,959L583,927L23,938Z" fill="#727a9f" stroke="#727a9f"/><path d="M23,938L583,927L172,894Z" fill="#6d789f" stroke="#6d789f"/><path d="M172,894L583,927L346,877Z" fill="#69769c" stroke="#69769c"/><path d="M346,877L583,927L455,866Z" fill="#62739a" stroke="#62739a"/><path d="M583,927L1080,956L715,913Z" fill="#3c6595" stroke="#3c6595"/><path d="M715,913L1080,956L963,862Z" fill="#2e5d9e" stroke="#2e5d9e"/><path d="M1080,956L1557,954L1154,953Z" fill="#0d3984" stroke="#0d3984"/><path d="M1154,953L1557,954L1328,948Z" fill="#052e7e" stroke="#052e7e"/><path d="M1328,948L1557,954L1419,912Z" fill="#002279" stroke="#002279"/></g><filter id="noise"><feTurbulence type="fractalNoise" in="fillPaint" fill="#F00" baseFrequency="0.7" numOctaves="10" stitchTiles="stitch"/><feComponentTransfer><feFuncR type="linear" slope="2" intercept="-.5"/><feFuncG type="linear" slope="2" intercept="-.5"/><feFuncB type="linear" slope="2" intercept="-.5"/></feComponentTransfer><feColorMatrix type="matrix" values="0.3333 0.3333 0.3333 0 0 
 0.3333 0.3333 0.3333 0 0 
 0.3333 0.3333 0.3333 0 0 
 0 0 0 1 0"/></filter><rect opacity="0.2" width="100%" height="100%" filter="url(#noise)"/></svg>