<?xml version="1.0" encoding="UTF-8" standalone="no"?>
<!-- Created with Inkscape (http://www.inkscape.org/) -->

<svg
   xmlns:dc="http://purl.org/dc/elements/1.1/"
   xmlns:cc="http://creativecommons.org/ns#"
   xmlns:rdf="http://www.w3.org/1999/02/22-rdf-syntax-ns#"
   xmlns:svg="http://www.w3.org/2000/svg"
   xmlns="http://www.w3.org/2000/svg"
   version="1.1"
   width="1551"
   height="805"
   id="svg2">
  <metadata
     id="metadata451">
    <rdf:RDF>
      <cc:Work
         rdf:about="">
        <dc:format>image/svg+xml</dc:format>
        <dc:type
           rdf:resource="http://purl.org/dc/dcmitype/StillImage" />
        <dc:title></dc:title>
      </cc:Work>
    </rdf:RDF>
  </metadata>
  <defs
     id="defs449" />
  <g
     id="g4">
    <path
       d="M -112,-69 -95,959 -102,82 z"
       id="path6"
       style="fill:#defeec;stroke:#defeec" />
    <path
       d="M -112,-69 -102,82 52,-70 z"
       id="path8"
       style="fill:#fefffb;stroke:#fefffb" />
    <path
       d="m -112,-69 164,-1 1007,-43 z"
       id="path10"
       style="fill:#e9f6e5;stroke:#e9f6e5" />
    <path
       d="M 52,-70 -102,82 114,94 z"
       id="path12"
       style="fill:#fafdf7;stroke:#fafdf7" />
    <path
       d="M 52,-70 114,94 183,-22 z"
       id="path14"
       style="fill:#f4fbf1;stroke:#f4fbf1" />
    <path
       d="m 52,-70 131,48 207,-33 z"
       id="path16"
       style="fill:#eff9ec;stroke:#eff9ec" />
    <path
       d="m 52,-70 338,15 48,-4 z"
       id="path18"
       style="fill:#ebf7e8;stroke:#ebf7e8" />
    <path
       d="m 52,-70 386,11 621,-54 z"
       id="path20"
       style="fill:#daf1dd;stroke:#daf1dd" />
    <path
       d="M 183,-22 114,94 246,60 z"
       id="path22"
       style="fill:#f1faee;stroke:#f1faee" />
    <path
       d="m 183,-22 63,82 60,0 z"
       id="path24"
       style="fill:#edf8ea;stroke:#edf8ea" />
    <path
       d="M 183,-22 306,60 390,-55 z"
       id="path26"
       style="fill:#ebf7e8;stroke:#ebf7e8" />
    <path
       d="M 390,-55 306,60 472,33 z"
       id="path28"
       style="fill:#e6f5e2;stroke:#e6f5e2" />
    <path
       d="m 390,-55 82,88 -34,-92 z"
       id="path30"
       style="fill:#e2f4e0;stroke:#e2f4e0" />
    <path
       d="m 438,-59 34,92 208,-70 z"
       id="path32"
       style="fill:#d9f0dc;stroke:#d9f0dc" />
    <path
       d="m 438,-59 242,22 379,-76 z"
       id="path34"
       style="fill:#c3e8e0;stroke:#c3e8e0" />
    <path
       d="M 680,-37 472,33 665,99 z"
       id="path36"
       style="fill:#d1eddb;stroke:#d1eddb" />
    <path
       d="M 680,-37 665,99 811,35 z"
       id="path38"
       style="fill:#c4e8e0;stroke:#c4e8e0" />
    <path
       d="m 680,-37 131,72 -4,-81 z"
       id="path40"
       style="fill:#bee6e1;stroke:#bee6e1" />
    <path
       d="m 680,-37 127,-9 252,-67 z"
       id="path42"
       style="fill:#b5e1e5;stroke:#b5e1e5" />
    <path
       d="m 807,-46 4,81 124,-89 z"
       id="path44"
       style="fill:#b4e1e5;stroke:#b4e1e5" />
    <path
       d="m 807,-46 128,-8 124,-59 z"
       id="path46"
       style="fill:#abdce8;stroke:#abdce8" />
    <path
       d="M 935,-54 811,35 892,72 z"
       id="path48"
       style="fill:#b1dfe6;stroke:#b1dfe6" />
    <path
       d="M 935,-54 892,72 1077,63 z"
       id="path50"
       style="fill:#a7d9e9;stroke:#a7d9e9" />
    <path
       d="m 935,-54 142,117 -18,-176 z"
       id="path52"
       style="fill:#a2d4e6;stroke:#a2d4e6" />
    <path
       d="m 1059,-113 18,176 66,-34 z"
       id="path54"
       style="fill:#9ccde3;stroke:#9ccde3" />
    <path
       d="m 1059,-113 84,142 81,-102 z"
       id="path56"
       style="fill:#97c8e0;stroke:#97c8e0" />
    <path
       d="m 1059,-113 165,40 55,-28 z"
       id="path58"
       style="fill:#93c3dd;stroke:#93c3dd" />
    <path
       d="m 1059,-113 220,12 331,-12 z"
       id="path60"
       style="fill:#87b1d2;stroke:#87b1d2" />
    <path
       d="m 1059,-113 551,0 145,-6 z"
       id="path62"
       style="fill:#809cc5;stroke:#809cc5" />
    <path
       d="m 1224,-73 -81,102 179,19 z"
       id="path64"
       style="fill:#8fbdd9;stroke:#8fbdd9" />
    <path
       d="m 1224,-73 98,121 -43,-149 z"
       id="path66"
       style="fill:#8bb7d6;stroke:#8bb7d6" />
    <path
       d="m 1279,-101 43,149 142,-32 z"
       id="path68"
       style="fill:#84accf;stroke:#84accf" />
    <path
       d="m 1279,-101 185,117 32,-66 z"
       id="path70"
       style="fill:#80a4ca;stroke:#80a4ca" />
    <path
       d="m 1279,-101 217,51 114,-63 z"
       id="path72"
       style="fill:#809ec6;stroke:#809ec6" />
    <path
       d="m 1496,-50 -32,66 194,91 z"
       id="path74"
       style="fill:#8093c0;stroke:#8093c0" />
    <path
       d="m 1496,-50 162,157 -48,-220 z"
       id="path76"
       style="fill:#808dbc;stroke:#808dbc" />
    <path
       d="m 1610,-113 48,220 97,-226 z"
       id="path78"
       style="fill:#8081b5;stroke:#8081b5" />
    <path
       d="m 1755,-119 -97,226 146,-77 z"
       id="path80"
       style="fill:#8080af;stroke:#8080af" />
    <path
       d="m -102,82 7,877 42,-290 z"
       id="path82"
       style="fill:#a0dbf2;stroke:#a0dbf2" />
    <path
       d="m -102,82 49,587 8,-218 z"
       id="path84"
       style="fill:#caf9f1;stroke:#caf9f1" />
    <path
       d="m -102,82 57,369 0,-85 z"
       id="path86"
       style="fill:#e4ffe8;stroke:#e4ffe8" />
    <path
       d="m -102,82 57,284 7,-103 z"
       id="path88"
       style="fill:#f1ffee;stroke:#f1ffee" />
    <path
       d="m -102,82 64,181 87,-77 z"
       id="path90"
       style="fill:#f9fef2;stroke:#f9fef2" />
    <path
       d="M -102,82 49,186 114,94 z"
       id="path92"
       style="fill:#f9fdf5;stroke:#f9fdf5" />
    <path
       d="m 114,94 -65,92 115,-2 z"
       id="path94"
       style="fill:#f2fbec;stroke:#f2fbec" />
    <path
       d="m 114,94 50,90 82,-124 z"
       id="path96"
       style="fill:#f0faed;stroke:#f0faed" />
    <path
       d="M 246,60 164,184 306,60 z"
       id="path98"
       style="fill:#edf8eb;stroke:#edf8eb" />
    <path
       d="M 306,60 164,184 394,176 z"
       id="path100"
       style="fill:#e8f7e4;stroke:#e8f7e4" />
    <path
       d="M 306,60 394,176 472,33 z"
       id="path102"
       style="fill:#e5f5e2;stroke:#e5f5e2" />
    <path
       d="m 472,33 -78,143 193,5 z"
       id="path104"
       style="fill:#dbf2db;stroke:#dbf2db" />
    <path
       d="M 472,33 587,181 665,99 z"
       id="path106"
       style="fill:#d4efda;stroke:#d4efda" />
    <path
       d="m 665,99 -78,82 169,81 z"
       id="path108"
       style="fill:#c5ead6;stroke:#c5ead6" />
    <path
       d="M 665,99 756,262 811,35 z"
       id="path110"
       style="fill:#bfe7de;stroke:#bfe7de" />
    <path
       d="M 811,35 756,262 918,189 z"
       id="path112"
       style="fill:#b4e2de;stroke:#b4e2de" />
    <path
       d="M 811,35 918,189 892,72 z"
       id="path114"
       style="fill:#b2dfe6;stroke:#b2dfe6" />
    <path
       d="m 892,72 26,117 105,-17 z"
       id="path116"
       style="fill:#a7dbe4;stroke:#a7dbe4" />
    <path
       d="m 892,72 131,100 54,-109 z"
       id="path118"
       style="fill:#a4d6e8;stroke:#a4d6e8" />
    <path
       d="m 1077,63 -54,109 118,-16 z"
       id="path120"
       style="fill:#9bcee0;stroke:#9bcee0" />
    <path
       d="m 1077,63 64,93 2,-127 z"
       id="path122"
       style="fill:#99cae1;stroke:#99cae1" />
    <path
       d="m 1143,29 -2,127 153,14 z"
       id="path124"
       style="fill:#92c2da;stroke:#92c2da" />
    <path
       d="m 1143,29 151,141 28,-122 z"
       id="path126"
       style="fill:#8dbad7;stroke:#8dbad7" />
    <path
       d="m 1322,48 -28,122 190,52 z"
       id="path128"
       style="fill:#80aac9;stroke:#80aac9" />
    <path
       d="M 1322,48 1484,222 1464,16 z"
       id="path130"
       style="fill:#80a3c9;stroke:#80a3c9" />
    <path
       d="m 1464,16 20,206 174,-115 z"
       id="path132"
       style="fill:#7f94bf;stroke:#7f94bf" />
    <path
       d="m 1658,107 -174,115 180,24 z"
       id="path134"
       style="fill:#7a8bb2;stroke:#7a8bb2" />
    <path
       d="m 1658,107 6,139 133,-68 z"
       id="path136"
       style="fill:#7b80aa;stroke:#7b80aa" />
    <path
       d="m 1658,107 139,71 7,-148 z"
       id="path138"
       style="fill:#7f80ae;stroke:#7f80ae" />
    <path
       d="m 1804,30 -7,148 6,346 z"
       id="path140"
       style="fill:#71809c;stroke:#71809c" />
    <path
       d="m -38,263 -7,103 153,-12 z"
       id="path142"
       style="fill:#d8fce6;stroke:#d8fce6" />
    <path
       d="M -38,263 108,354 49,186 z"
       id="path144"
       style="fill:#e5fde5;stroke:#e5fde5" />
    <path
       d="m 49,186 59,168 50,-31 z"
       id="path146"
       style="fill:#ddfbe0;stroke:#ddfbe0" />
    <path
       d="m 49,186 109,137 6,-139 z"
       id="path148"
       style="fill:#e7fbe4;stroke:#e7fbe4" />
    <path
       d="m 164,184 -6,139 216,24 z"
       id="path150"
       style="fill:#d6f8d9;stroke:#d6f8d9" />
    <path
       d="M 164,184 374,347 394,176 z"
       id="path152"
       style="fill:#dcf7da;stroke:#dcf7da" />
    <path
       d="M 394,176 374,347 497,258 z"
       id="path154"
       style="fill:#d0f4d1;stroke:#d0f4d1" />
    <path
       d="m 394,176 103,82 90,-77 z"
       id="path156"
       style="fill:#d5f1d3;stroke:#d5f1d3" />
    <path
       d="M 497,258 374,347 538,302 z"
       id="path158"
       style="fill:#c3f2cb;stroke:#c3f2cb" />
    <path
       d="m 497,258 41,44 49,-121 z"
       id="path160"
       style="fill:#c8f0cd;stroke:#c8f0cd" />
    <path
       d="m 587,181 -49,121 116,54 z"
       id="path162"
       style="fill:#bbeec9;stroke:#bbeec9" />
    <path
       d="m 587,181 67,175 102,-94 z"
       id="path164"
       style="fill:#b6ebce;stroke:#b6ebce" />
    <path
       d="m 756,262 -102,94 153,8 z"
       id="path166"
       style="fill:#9fe6cf;stroke:#9fe6cf" />
    <path
       d="M 756,262 807,364 918,189 z"
       id="path168"
       style="fill:#a2e2d3;stroke:#a2e2d3" />
    <path
       d="M 918,189 807,364 943,348 z"
       id="path170"
       style="fill:#95ded3;stroke:#95ded3" />
    <path
       d="m 918,189 25,159 80,-176 z"
       id="path172"
       style="fill:#9adadb;stroke:#9adadb" />
    <path
       d="m 1023,172 -80,176 84,41 z"
       id="path174"
       style="fill:#88d6d4;stroke:#88d6d4" />
    <path
       d="m 1023,172 4,217 114,-233 z"
       id="path176"
       style="fill:#90d0d7;stroke:#90d0d7" />
    <path
       d="m 1141,156 -114,233 195,-12 z"
       id="path178"
       style="fill:#7bc9ce;stroke:#7bc9ce" />
    <path
       d="m 1141,156 81,221 72,-207 z"
       id="path180"
       style="fill:#83becd;stroke:#83becd" />
    <path
       d="m 1294,170 -72,207 157,-78 z"
       id="path182"
       style="fill:#72b4c2;stroke:#72b4c2" />
    <path
       d="m 1294,170 85,129 105,-77 z"
       id="path184"
       style="fill:#75a8c0;stroke:#75a8c0" />
    <path
       d="m 1484,222 -105,77 48,64 z"
       id="path186"
       style="fill:#66a2b6;stroke:#66a2b6" />
    <path
       d="m 1484,222 -57,141 143,-40 z"
       id="path188"
       style="fill:#6499b0;stroke:#6499b0" />
    <path
       d="m 1484,222 86,101 94,-77 z"
       id="path190"
       style="fill:#6c8fad;stroke:#6c8fad" />
    <path
       d="m 1664,246 -94,77 192,27 z"
       id="path192"
       style="fill:#6382a2;stroke:#6382a2" />
    <path
       d="m 1664,246 98,104 35,-172 z"
       id="path194"
       style="fill:#6e80a0;stroke:#6e80a0" />
    <path
       d="m 1797,178 -35,172 41,174 z"
       id="path196"
       style="fill:#577d9c;stroke:#577d9c" />
    <path
       d="m -45,366 0,85 119,-12 z"
       id="path198"
       style="fill:#c1f5ef;stroke:#c1f5ef" />
    <path
       d="m -45,366 119,73 34,-85 z"
       id="path200"
       style="fill:#c7f8e9;stroke:#c7f8e9" />
    <path
       d="m 108,354 -34,85 163,45 z"
       id="path202"
       style="fill:#b7f1e8;stroke:#b7f1e8" />
    <path
       d="M 108,354 237,484 158,323 z"
       id="path204"
       style="fill:#bff5e3;stroke:#bff5e3" />
    <path
       d="m 158,323 79,161 75,-17 z"
       id="path206"
       style="fill:#b2efe2;stroke:#b2efe2" />
    <path
       d="M 158,323 312,467 374,347 z"
       id="path208"
       style="fill:#bbf3dc;stroke:#bbf3dc" />
    <path
       d="m 374,347 -62,120 227,2 z"
       id="path210"
       style="fill:#a7ebd9;stroke:#a7ebd9" />
    <path
       d="M 374,347 539,469 538,302 z"
       id="path212"
       style="fill:#afeed1;stroke:#afeed1" />
    <path
       d="m 538,302 1,167 115,-113 z"
       id="path214"
       style="fill:#a5eacd;stroke:#a5eacd" />
    <path
       d="m 654,356 -115,113 80,41 z"
       id="path216"
       style="fill:#90e1d5;stroke:#90e1d5" />
    <path
       d="M 654,356 619,510 807,364 z"
       id="path218"
       style="fill:#8fe2d5;stroke:#8fe2d5" />
    <path
       d="M 807,364 619,510 819,531 z"
       id="path220"
       style="fill:#79d7dc;stroke:#79d7dc" />
    <path
       d="m 807,364 12,167 72,-82 z"
       id="path222"
       style="fill:#74d5de;stroke:#74d5de" />
    <path
       d="m 807,364 84,85 52,-101 z"
       id="path224"
       style="fill:#7fdada;stroke:#7fdada" />
    <path
       d="m 943,348 -52,101 136,-60 z"
       id="path226"
       style="fill:#75d5de;stroke:#75d5de" />
    <path
       d="m 1027,389 -136,60 182,0 z"
       id="path228"
       style="fill:#67cce0;stroke:#67cce0" />
    <path
       d="m 1027,389 46,60 149,-72 z"
       id="path230"
       style="fill:#64c5d7;stroke:#64c5d7" />
    <path
       d="m 1222,377 -149,72 126,55 z"
       id="path232"
       style="fill:#54bad8;stroke:#54bad8" />
    <path
       d="m 1222,377 -23,127 102,24 z"
       id="path234"
       style="fill:#46abd4;stroke:#46abd4" />
    <path
       d="m 1222,377 79,151 126,-165 z"
       id="path236"
       style="fill:#4ca8ca;stroke:#4ca8ca" />
    <path
       d="m 1222,377 205,-14 -48,-64 z"
       id="path238"
       style="fill:#5eabc0;stroke:#5eabc0" />
    <path
       d="m 1427,363 -126,165 185,-71 z"
       id="path240"
       style="fill:#3d98c4;stroke:#3d98c4" />
    <path
       d="m 1427,363 59,94 84,-134 z"
       id="path242"
       style="fill:#4f95b7;stroke:#4f95b7" />
    <path
       d="m 1570,323 -84,134 74,57 z"
       id="path244"
       style="fill:#4289b8;stroke:#4289b8" />
    <path
       d="m 1570,323 -10,191 202,-164 z"
       id="path246"
       style="fill:#4c82ad;stroke:#4c82ad" />
    <path
       d="m 1762,350 -202,164 243,10 z"
       id="path248"
       style="fill:#3a71ad;stroke:#3a71ad" />
    <path
       d="m -45,451 -8,218 104,8 z"
       id="path250"
       style="fill:#97d3eb;stroke:#97d3eb" />
    <path
       d="M -45,451 51,677 74,439 z"
       id="path252"
       style="fill:#a5e4f2;stroke:#a5e4f2" />
    <path
       d="M 74,439 51,677 206,595 z"
       id="path254"
       style="fill:#96d7e8;stroke:#96d7e8" />
    <path
       d="M 74,439 206,595 237,484 z"
       id="path256"
       style="fill:#a0e4ec;stroke:#a0e4ec" />
    <path
       d="M 237,484 206,595 312,467 z"
       id="path258"
       style="fill:#99e0e7;stroke:#99e0e7" />
    <path
       d="m 312,467 -106,128 98,74 z"
       id="path260"
       style="fill:#8bd2de;stroke:#8bd2de" />
    <path
       d="m 312,467 -8,202 227,-77 z"
       id="path262"
       style="fill:#86d0d8;stroke:#86d0d8" />
    <path
       d="m 312,467 219,125 8,-123 z"
       id="path264"
       style="fill:#8cdcdd;stroke:#8cdcdd" />
    <path
       d="m 539,469 -8,123 88,-82 z"
       id="path266"
       style="fill:#80d5d7;stroke:#80d5d7" />
    <path
       d="m 619,510 -88,82 102,10 z"
       id="path268"
       style="fill:#74cad1;stroke:#74cad1" />
    <path
       d="m 619,510 14,92 186,-71 z"
       id="path270"
       style="fill:#6dcad7;stroke:#6dcad7" />
    <path
       d="M 819,531 633,602 820,577 z"
       id="path272"
       style="fill:#60c2d7;stroke:#60c2d7" />
    <path
       d="m 819,531 1,46 71,-128 z"
       id="path274"
       style="fill:#61c9e1;stroke:#61c9e1" />
    <path
       d="m 891,449 -71,128 191,49 z"
       id="path276"
       style="fill:#53bddf;stroke:#53bddf" />
    <path
       d="m 891,449 120,177 62,-177 z"
       id="path278"
       style="fill:#53c1e6;stroke:#53c1e6" />
    <path
       d="m 1073,449 -62,177 188,-122 z"
       id="path280"
       style="fill:#45b2de;stroke:#45b2de" />
    <path
       d="m 1199,504 -188,122 133,57 z"
       id="path282"
       style="fill:#339ed3;stroke:#339ed3" />
    <path
       d="m 1199,504 -55,179 180,-52 z"
       id="path284"
       style="fill:#2a91cb;stroke:#2a91cb" />
    <path
       d="m 1199,504 125,127 -23,-103 z"
       id="path286"
       style="fill:#3096ce;stroke:#3096ce" />
    <path
       d="m 1301,528 23,103 162,-174 z"
       id="path288"
       style="fill:#2a8dc8;stroke:#2a8dc8" />
    <path
       d="m 1486,457 -162,174 193,4 z"
       id="path290"
       style="fill:#207bbd;stroke:#207bbd" />
    <path
       d="m 1486,457 31,178 43,-121 z"
       id="path292"
       style="fill:#2879bc;stroke:#2879bc" />
    <path
       d="m 1560,514 -43,121 66,-46 z"
       id="path294"
       style="fill:#1f6bb4;stroke:#1f6bb4" />
    <path
       d="m 1560,514 23,75 220,-65 z"
       id="path296"
       style="fill:#2767b0;stroke:#2767b0" />
    <path
       d="m 1803,524 -220,65 151,45 z"
       id="path298"
       style="fill:#1e59a6;stroke:#1e59a6" />
    <path
       d="m 1803,524 -69,110 35,85 z"
       id="path300"
       style="fill:#184d9b;stroke:#184d9b" />
    <path
       d="m 1803,524 -34,195 -25,220 z"
       id="path302"
       style="fill:#102e87;stroke:#102e87" />
    <path
       d="M -53,669 -95,959 -46,750 z"
       id="path304"
       style="fill:#8a99c9;stroke:#8a99c9" />
    <path
       d="m -53,669 7,81 97,-73 z"
       id="path306"
       style="fill:#8fb5d8;stroke:#8fb5d8" />
    <path
       d="M 51,677 -46,750 97,726 z"
       id="path308"
       style="fill:#8aaed2;stroke:#8aaed2" />
    <path
       d="M 51,677 97,726 206,595 z"
       id="path310"
       style="fill:#89bcd7;stroke:#89bcd7" />
    <path
       d="M 206,595 97,726 209,801 z"
       id="path312"
       style="fill:#83aecd;stroke:#83aecd" />
    <path
       d="m 206,595 3,206 95,-132 z"
       id="path314"
       style="fill:#81b2cc;stroke:#81b2cc" />
    <path
       d="M 304,669 209,801 394,756 z"
       id="path316"
       style="fill:#79a1be;stroke:#79a1be" />
    <path
       d="m 304,669 90,87 137,-164 z"
       id="path318"
       style="fill:#78b3c6;stroke:#78b3c6" />
    <path
       d="m 531,592 -137,164 60,47 z"
       id="path320"
       style="fill:#70a4bb;stroke:#70a4bb" />
    <path
       d="m 531,592 -77,211 126,13 z"
       id="path322"
       style="fill:#699bb5;stroke:#699bb5" />
    <path
       d="m 531,592 49,224 53,-214 z"
       id="path324"
       style="fill:#68aebf;stroke:#68aebf" />
    <path
       d="M 633,602 580,816 751,766 z"
       id="path326"
       style="fill:#5b99b7;stroke:#5b99b7" />
    <path
       d="M 633,602 751,766 820,577 z"
       id="path328"
       style="fill:#58aeca;stroke:#58aeca" />
    <path
       d="M 820,577 751,766 960,659 z"
       id="path330"
       style="fill:#4aa2ca;stroke:#4aa2ca" />
    <path
       d="m 820,577 140,82 51,-33 z"
       id="path332"
       style="fill:#44abd6;stroke:#44abd6" />
    <path
       d="M 960,659 751,766 859,814 z"
       id="path334"
       style="fill:#4289bb;stroke:#4289bb" />
    <path
       d="M 960,659 859,814 963,862 z"
       id="path336"
       style="fill:#387ab8;stroke:#387ab8" />
    <path
       d="m 960,659 3,203 138,-60 z"
       id="path338"
       style="fill:#3075b8;stroke:#3075b8" />
    <path
       d="m 960,659 141,143 -90,-176 z"
       id="path340"
       style="fill:#348bc6;stroke:#348bc6" />
    <path
       d="m 1011,626 90,176 43,-119 z"
       id="path342"
       style="fill:#2e83c1;stroke:#2e83c1" />
    <path
       d="m 1144,683 -43,119 66,-40 z"
       id="path344"
       style="fill:#2670b6;stroke:#2670b6" />
    <path
       d="m 1144,683 23,79 157,-131 z"
       id="path346"
       style="fill:#2478bc;stroke:#2478bc" />
    <path
       d="m 1324,631 -157,131 141,50 z"
       id="path348"
       style="fill:#1b63af;stroke:#1b63af" />
    <path
       d="m 1324,631 -16,181 166,-13 z"
       id="path350"
       style="fill:#1152a4;stroke:#1152a4" />
    <path
       d="m 1324,631 150,168 43,-164 z"
       id="path352"
       style="fill:#135baa;stroke:#135baa" />
    <path
       d="m 1517,635 -43,164 133,12 z"
       id="path354"
       style="fill:#0e3c96;stroke:#0e3c96" />
    <path
       d="m 1517,635 90,176 -24,-222 z"
       id="path356"
       style="fill:#144ca1;stroke:#144ca1" />
    <path
       d="m 1583,589 24,222 127,-177 z"
       id="path358"
       style="fill:#14439b;stroke:#14439b" />
    <path
       d="m 1734,634 -127,177 162,-92 z"
       id="path360"
       style="fill:#10308d;stroke:#10308d" />
    <path
       d="M -46,750 -95,959 23,938 z"
       id="path362"
       style="fill:#827fb6;stroke:#827fb6" />
    <path
       d="M -46,750 23,938 97,726 z"
       id="path364"
       style="fill:#8493c1;stroke:#8493c1" />
    <path
       d="M 97,726 23,938 172,894 z"
       id="path366"
       style="fill:#7b83b4;stroke:#7b83b4" />
    <path
       d="m 97,726 75,168 37,-93 z"
       id="path368"
       style="fill:#7c90ba;stroke:#7c90ba" />
    <path
       d="m 209,801 -37,93 174,-17 z"
       id="path370"
       style="fill:#737eac;stroke:#737eac" />
    <path
       d="m 209,801 137,76 48,-121 z"
       id="path372"
       style="fill:#738bb0;stroke:#738bb0" />
    <path
       d="M 394,756 346,877 454,803 z"
       id="path374"
       style="fill:#6e89ab;stroke:#6e89ab" />
    <path
       d="M 454,803 346,877 455,866 z"
       id="path376"
       style="fill:#697da3;stroke:#697da3" />
    <path
       d="m 454,803 1,63 125,-50 z"
       id="path378"
       style="fill:#6480a4;stroke:#6480a4" />
    <path
       d="m 580,816 -125,50 128,61 z"
       id="path380"
       style="fill:#5d729a;stroke:#5d729a" />
    <path
       d="m 580,816 3,111 132,-14 z"
       id="path382"
       style="fill:#526d97;stroke:#526d97" />
    <path
       d="m 580,816 135,97 36,-147 z"
       id="path384"
       style="fill:#5078a4;stroke:#5078a4" />
    <path
       d="M 751,766 715,913 859,814 z"
       id="path386"
       style="fill:#4574a8;stroke:#4574a8" />
    <path
       d="M 859,814 715,913 963,862 z"
       id="path388"
       style="fill:#3b65a4;stroke:#3b65a4" />
    <path
       d="m 1101,802 -138,60 117,94 z"
       id="path390"
       style="fill:#2452a3;stroke:#2452a3" />
    <path
       d="m 1101,802 -21,154 74,-3 z"
       id="path392"
       style="fill:#1c4b9a;stroke:#1c4b9a" />
    <path
       d="m 1101,802 53,151 13,-191 z"
       id="path394"
       style="fill:#1f54a4;stroke:#1f54a4" />
    <path
       d="m 1167,762 -13,191 154,-141 z"
       id="path396"
       style="fill:#184a9f;stroke:#184a9f" />
    <path
       d="m 1308,812 -154,141 174,-5 z"
       id="path398"
       style="fill:#0e398e;stroke:#0e398e" />
    <path
       d="m 1308,812 20,136 91,-36 z"
       id="path400"
       style="fill:#072d8a;stroke:#072d8a" />
    <path
       d="m 1308,812 111,100 55,-113 z"
       id="path402"
       style="fill:#07318f;stroke:#07318f" />
    <path
       d="m 1474,799 -55,113 138,42 z"
       id="path404"
       style="fill:#031b7f;stroke:#031b7f" />
    <path
       d="m 1474,799 83,155 50,-143 z"
       id="path406"
       style="fill:#061981;stroke:#061981" />
    <path
       d="m 1607,811 -50,143 187,-15 z"
       id="path408"
       style="fill:#020770;stroke:#020770" />
    <path
       d="m 1607,811 137,128 25,-220 z"
       id="path410"
       style="fill:#081079;stroke:#081079" />
    <path
       d="M -95,959 1080,956 583,927 z"
       id="path412"
       style="fill:#5a718c;stroke:#5a718c" />
    <path
       d="M -95,959 583,927 23,938 z"
       id="path414"
       style="fill:#727a9f;stroke:#727a9f" />
    <path
       d="M 23,938 583,927 172,894 z"
       id="path416"
       style="fill:#6d789f;stroke:#6d789f" />
    <path
       d="M 172,894 583,927 346,877 z"
       id="path418"
       style="fill:#69769c;stroke:#69769c" />
    <path
       d="M 346,877 583,927 455,866 z"
       id="path420"
       style="fill:#62739a;stroke:#62739a" />
    <path
       d="m 583,927 497,29 -365,-43 z"
       id="path422"
       style="fill:#3c6595;stroke:#3c6595" />
    <path
       d="m 715,913 365,43 -117,-94 z"
       id="path424"
       style="fill:#2e5d9e;stroke:#2e5d9e" />
    <path
       d="m 1080,956 477,-2 -403,-1 z"
       id="path426"
       style="fill:#0d3984;stroke:#0d3984" />
    <path
       d="m 1154,953 403,1 -229,-6 z"
       id="path428"
       style="fill:#052e7e;stroke:#052e7e" />
    <path
       d="m 1328,948 229,6 -138,-42 z"
       id="path430"
       style="fill:#002279;stroke:#002279" />
  </g>
  <filter
     color-interpolation-filters="sRGB"
     id="noise">
    <feTurbulence
       id="feTurbulence433"
       stitchTiles="stitch"
       numOctaves="10"
       baseFrequency="0.7"
       fill="#F00"
       type="fractalNoise" />
    <feComponentTransfer
       id="feComponentTransfer435">
      <feFuncR
         id="feFuncR437"
         intercept="-.5"
         slope="2"
         type="linear" />
      <feFuncG
         id="feFuncG439"
         intercept="-.5"
         slope="2"
         type="linear" />
      <feFuncB
         id="feFuncB441"
         intercept="-.5"
         slope="2"
         type="linear" />
    </feComponentTransfer>
    <feColorMatrix
       id="feColorMatrix443"
       values="0.3333 0.3333 0.3333 0 0   0.3333 0.3333 0.3333 0 0   0.3333 0.3333 0.3333 0 0   0 0 0 1 0"
       type="matrix" />
  </filter>
</svg>
