<?xml version="1.0" encoding="UTF-8" standalone="no"?>
<!-- Created with Inkscape (http://www.inkscape.org/) -->

<svg
   xmlns:dc="http://purl.org/dc/elements/1.1/"
   xmlns:cc="http://creativecommons.org/ns#"
   xmlns:rdf="http://www.w3.org/1999/02/22-rdf-syntax-ns#"
   xmlns:svg="http://www.w3.org/2000/svg"
   xmlns="http://www.w3.org/2000/svg"
   version="1.1"
   width="40"
   height="40"
   id="svg2">
  <metadata
     id="metadata44">
    <rdf:RDF>
      <cc:Work
         rdf:about="">
        <dc:format>image/svg+xml</dc:format>
        <dc:type
           rdf:resource="http://purl.org/dc/dcmitype/StillImage" />
        <dc:title></dc:title>
      </cc:Work>
    </rdf:RDF>
  </metadata>
  <defs
     id="defs42" />
  <path
     d="m 17.96875,2 -4.3125,1.1875 4.4375,5.34375 4.125,0 L 26.03125,3.1875 22.21875,2 l -4.25,0 z M 12.1875,4.0625 6,9.09375 l 5.90625,3.25 4.71875,-3.25 -4.4375,-5.03125 z m 15.625,0 -4.4375,5.03125 4.71875,3.25 L 34,9.09375 27.8125,4.0625 z m -22.40625,6.21875 -2.9375,7.65625 7.375,1.78125 1.75,-6.1875 -6.1875,-3.25 z m 29.1875,0 -6.1875,3.25 1.75,6.1875 7.375,-1.78125 -2.9375,-7.65625 z M 2.1875,19.125 1,28 9.25,28 9.84375,20.90625 2.1875,19.125 z m 35.625,0 -7.65625,1.78125 L 30.75,28 39,28 37.8125,19.125 z M 1,31 l 0,7 1.1875,0 0,-2.5 2.3125,2.5 1.09375,0 0,-0.5 L 3.625,35.4375 C 4.1477396,35.37188 4.5398232,35.121782 4.84375,34.6875 5.1476608,34.253227 5.3059537,33.768501 5.3125,33.21875 5.3223207,32.580673 5.1069042,32.040504 4.6875,31.625 4.2680838,31.209509 3.5602137,31.014846 2.59375,31 L 1,31 z m 5.625,0 0,7 3.9375,0 0,-1.09375 -2.6875,0 0,-2 1.96875,0 0,-1.09375 -1.96875,0 0,-1.75 2.5625,0 0,-1.0625 -3.8125,0 z m 5.125,0 0,7 2,0 c 0.662627,-0.011 1.222538,-0.195445 1.625,-0.53125 0.402455,-0.335805 0.663229,-0.752534 0.84375,-1.28125 C 16.399259,35.658789 16.503184,35.089723 16.5,34.5 16.5051,33.917018 16.441184,33.376454 16.28125,32.84375 16.121301,32.311057 15.854369,31.873519 15.46875,31.53125 15.083123,31.188993 14.515729,31.011687 13.84375,31 L 11.75,31 z m 6.1875,0 0,7 1.25,0 0,-3.875 -0.09375,-0.8125 1.625,4.6875 1,0 1.65625,-4.6875 -0.09375,0.8125 0,3.875 1.21875,0 0,-7 -1.4375,0 -1.6875,4.75 c -0.05565,0.167174 -0.100226,0.31624 -0.125,0.4375 -0.02479,0.121266 -0.03171,0.181705 -0.03125,0.1875 3.29e-4,-0.0051 -0.0065,-0.06831 -0.03125,-0.1875 -0.02479,-0.119176 -0.06936,-0.265456 -0.125,-0.4375 L 19.375,31 17.9375,31 z m 8.1875,0 0,7 1.1875,0 0,-7 -1.1875,0 z m 2.75,0 0,7 1.25,0 0,-3.96875 c -0.0032,-0.242987 -0.0083,-0.474466 -0.03125,-0.65625 -0.0229,-0.181775 -0.05924,-0.271971 -0.0625,-0.28125 L 32.25,38 l 1.21875,0 0,-7 -1.25,0 0,2.46875 0,1.15625 0,0.46875 0,0.4375 C 32.21645,35.5141 32.18625,35.407773 32.125,35.1875 32.06374,34.967235 31.967108,34.748741 31.875,34.53125 L 30.34375,31 28.875,31 z m 6.21875,0 0,7 3.90625,0 0,-1.09375 -2.71875,0 0,-2 2,0 0,-1.09375 -2,0 0,-1.75 2.625,0 0,-1.0625 -3.8125,0 z m -32.90625,1.03125 0.40625,0 c 0.5070766,0.0035 0.894251,0.107306 1.125,0.3125 0.2307411,0.205206 0.3472509,0.509821 0.34375,0.875 -7.921e-4,0.378868 -0.077157,0.672717 -0.28125,0.9375 -0.2040963,0.26479 -0.5384316,0.42591 -0.9375,0.4375 C 2.68945,34.58765 2.5380992,34.5422 2.40625,34.5 2.2743929,34.45781 2.1959116,34.44354 2.1875,34.4375 l 0,-2.40625 z m 10.75,0 0.875,0 c 0.427669,0.01285 0.760528,0.162912 0.96875,0.4375 0.208223,0.274599 0.342657,0.586576 0.40625,0.96875 0.06358,0.382179 0.09999,0.758155 0.09375,1.09375 0.0055,0.345289 -0.05239,0.69166 -0.125,1.0625 -0.0726,0.370843 -0.189029,0.709203 -0.40625,0.96875 -0.217236,0.259548 -0.571645,0.363597 -1,0.375 l -0.8125,0 0,-4.90625 z"
     id="path6"
     style="fill:#ffffff" />
</svg>
